<?xml version="1.0" encoding="UTF-8"?>
<svg id="_레이어_2" xmlns="http://www.w3.org/2000/svg" viewBox="0 0 508.12 340.36">
	<defs>
		<style>path{fill:#5b54c6;}</style>
	</defs>
	<g id="Layer_1">
		<path d="M483.31,340.36H24.82C11.14,340.36,0,329.23,0,315.55v-10.41c0-2.78,1.08-5.4,3.05-7.37s4.58-3.05,7.36-3.05H497.7c5.74,0,10.42,4.67,10.42,10.41v10.41c0,13.68-11.13,24.81-24.81,24.81ZM14,308.72v6.82c0,5.96,4.85,10.81,10.82,10.81H483.31c5.96,0,10.81-4.85,10.81-10.81v-6.82H14Z"/>
		<path d="M261.55,38.5h-14.97c-3.87,0-7-3.13-7-7s3.13-7,7-7h14.97c3.87,0,7,3.13,7,7s-3.13,7-7,7Z"/>
		<path d="M453.7,61.96H54.42c-3.87,0-7-3.13-7-7s3.13-7,7-7H453.7c3.87,0,7,3.13,7,7s-3.13,7-7,7Z"/>
		<path d="M498.62,308.9c-1.92,0-3.83-.78-5.21-2.33l-44.92-50.09c-1.15-1.28-1.79-2.95-1.79-4.67V43.19c0-16.09-13.09-29.19-29.19-29.19H90.6c-16.09,0-29.19,13.09-29.19,29.19V251.81c0,1.73-.64,3.39-1.79,4.67l-44.92,50.09c-2.58,2.88-7.01,3.12-9.89,.54-2.88-2.58-3.12-7.01-.54-9.88l43.13-48.09V43.19C47.42,19.37,66.79,0,90.6,0H417.52c23.81,0,43.19,19.37,43.19,43.19V249.13l43.13,48.09c2.58,2.88,2.34,7.3-.54,9.88-1.34,1.2-3.01,1.79-4.67,1.79Z"/>
		<path d="M453.7,258.99H54.42c-3.87,0-7-3.13-7-7s3.13-7,7-7H453.7c3.87,0,7,3.13,7,7s-3.13,7-7,7Z"/>
		<path d="M256.55,285.44h-9.98c-3.87,0-7-3.13-7-7s3.13-7,7-7h9.98c3.87,0,7,3.13,7,7s-3.13,7-7,7Z"/>
		<path d="M291.49,285.44h-9.98c-3.87,0-7-3.13-7-7s3.13-7,7-7h9.98c3.87,0,7,3.13,7,7s-3.13,7-7,7Z"/>
		<path d="M186.68,285.44h-9.98c-3.87,0-7-3.13-7-7s3.13-7,7-7h9.98c3.87,0,7,3.13,7,7s-3.13,7-7,7Z"/>
		<path d="M221.62,285.44h-9.98c-3.87,0-7-3.13-7-7s3.13-7,7-7h9.98c3.87,0,7,3.13,7,7s-3.13,7-7,7Z"/>
		<path d="M151.74,285.44h-9.98c-3.87,0-7-3.13-7-7s3.13-7,7-7h9.98c3.87,0,7,3.13,7,7s-3.13,7-7,7Z"/>
		<path d="M81.87,285.44h-9.98c-3.87,0-7-3.13-7-7s3.13-7,7-7h9.98c3.87,0,7,3.13,7,7s-3.13,7-7,7Z"/>
		<path d="M116.8,285.44h-9.98c-3.87,0-7-3.13-7-7s3.13-7,7-7h9.98c3.87,0,7,3.13,7,7s-3.13,7-7,7Z"/>
		<path d="M401.3,285.44h-9.98c-3.87,0-7-3.13-7-7s3.13-7,7-7h9.98c3.87,0,7,3.13,7,7s-3.13,7-7,7Z"/>
		<path d="M436.23,285.44h-9.98c-3.87,0-7-3.13-7-7s3.13-7,7-7h9.98c3.87,0,7,3.13,7,7s-3.13,7-7,7Z"/>
		<path d="M366.36,285.44h-9.98c-3.87,0-7-3.13-7-7s3.13-7,7-7h9.98c3.87,0,7,3.13,7,7s-3.13,7-7,7Z"/>
		<path d="M420.81,144.71c-1.79,0-3.58-.68-4.95-2.05l-50.55-50.55c-2.73-2.73-2.73-7.17,0-9.9s7.17-2.73,9.9,0l50.55,50.55c2.73,2.73,2.73,7.17,0,9.9-1.37,1.37-3.16,2.05-4.95,2.05Z"/>
		<path d="M373.44,141.54c-1.79,0-3.58-.68-4.95-2.05l-47.38-47.38c-2.73-2.73-2.73-7.17,0-9.9,2.73-2.73,7.17-2.73,9.9,0l47.38,47.38c2.73,2.73,2.73,7.17,0,9.9-1.37,1.37-3.16,2.05-4.95,2.05Z"/>
		<path d="M420.82,188.93c-1.79,0-3.58-.68-4.95-2.05l-3.84-3.84c-2.73-2.73-2.73-7.17,0-9.9,2.73-2.73,7.17-2.73,9.9,0l3.84,3.84c2.73,2.73,2.73,7.17,0,9.9-1.37,1.37-3.16,2.05-4.95,2.05Zm-23.05-23.05c-1.79,0-3.58-.68-4.95-2.05l-3.84-3.84c-2.73-2.73-2.73-7.17,0-9.9,2.73-2.73,7.17-2.73,9.9,0l3.84,3.84c2.73,2.73,2.73,7.17,0,9.9-1.37,1.37-3.16,2.05-4.95,2.05Zm-23.05-23.05c-1.79,0-3.58-.68-4.95-2.05l-1.28-1.28c-2.73-2.73-2.73-7.17,0-9.9,2.73-2.73,7.17-2.73,9.9,0l1.28,1.28c2.73,2.73,2.73,7.17,0,9.9-1.37,1.37-3.16,2.05-4.95,2.05Z"/>
		<path d="M203.87,229.62c-3.87,0-7-3.13-7-7v-65h-33.99v65c0,3.87-3.13,7-7,7s-7-3.13-7-7v-72c0-3.87,3.13-7,7-7h47.99c3.87,0,7,3.13,7,7v72c0,3.87-3.13,7-7,7Z"/>
		<path d="M251.86,229.62c-3.87,0-7-3.13-7-7V102.68h-33.99v119.94c0,3.87-3.13,7-7,7s-7-3.13-7-7V95.68c0-3.87,3.13-7,7-7h47.99c3.87,0,7,3.13,7,7v126.94c0,3.87-3.13,7-7,7Z"/>
		<path d="M299.85,229.62c-3.87,0-7-3.13-7-7v-88.37h-33.99v88.37c0,3.87-3.13,7-7,7s-7-3.13-7-7V127.26c0-3.87,3.13-7,7-7h47.99c3.87,0,7,3.13,7,7v95.37c0,3.87-3.13,7-7,7Z"/>
		<path d="M154.88,229.62c-3.87,0-7-3.13-7-7v-28.66h-33.99v28.66c0,3.87-3.13,7-7,7s-7-3.13-7-7v-35.66c0-3.87,3.13-7,7-7h47.99c3.87,0,7,3.13,7,7v35.66c0,3.87-3.13,7-7,7Z"/>
	</g>
</svg>