<svg id="_레이어_2" xmlns="http://www.w3.org/2000/svg" viewBox="0 0 680 680"><defs><style>.cls-1{fill:#fff}</style></defs><g id="Layer_1"><path class="cls-1" d="M234.14 285.86c-3.78-3.78-8.8-5.86-14.14-5.86s-10.36 2.08-14.14 5.86c-3.78 3.78-5.86 8.8-5.86 14.14s2.08 10.36 5.86 14.14l120 120c3.78 3.78 8.8 5.86 14.14 5.86s10.36-2.08 14.14-5.86l320-320c7.8-7.8 7.8-20.49 0-28.28-3.78-3.78-8.8-5.86-14.14-5.86s-10.36 2.08-14.14 5.86L340 391.72 234.14 285.86z"/><path class="cls-1" d="M660 320c-11.03 0-20 8.97-20 20v240c0 33.08-26.92 60-60 60H100c-33.08 0-60-26.92-60-60V100c0-33.08 26.92-60 60-60h360c11.03 0 20-8.97 20-20s-8.97-20-20-20H100C44.86 0 0 44.86 0 100v480c0 55.14 44.86 100 100 100h480c55.14 0 100-44.86 100-100V340c0-11.03-8.97-20-20-20z"/></g></svg>