<svg id="_레이어_2" xmlns="http://www.w3.org/2000/svg" viewBox="0 0 340.49 311.3"><defs><style>.cls-1{fill:#7682f8}</style></defs><g id="Layer_1"><path class="cls-1" d="M314.74 311.3c-6.59 0-13.18-2.51-18.19-7.52l-57.28-57.28c-.23-.23-.44-.47-.62-.73-2.98-4.14.39-7.51 1.82-8.95l26.71-26.71c1.12-1.13 2.65-1.76 4.24-1.76s3.12.63 4.24 1.76l57.28 57.28c4.87 4.87 7.56 11.33 7.56 18.2 0 6.86-2.68 13.32-7.56 18.2-5.02 5.02-11.61 7.53-18.2 7.53zm-62.75-69.05l53.04 53.04c5.35 5.35 14.07 5.35 19.42 0 2.61-2.61 4.04-6.05 4.04-9.71s-1.44-7.1-4.04-9.71l-53.04-53.04-19.42 19.42z"/><path class="cls-1" d="M253.21 232.54l-26.19-26.59 8.48-8.48 26.2 26.59-8.49 8.48z"/><path class="cls-1" d="M146.45 253.47c-3.07 0-6.16-.11-9.26-.32a7.73 7.73 0 01-7.17-8.24c.3-4.25 3.99-7.46 8.24-7.17 31.7 2.2 61.88-8.46 84.99-30.02 22.79-21.26 35.86-51.33 35.86-82.48 0-43.64-25.38-83.24-64.2-101.8v43.43h14.38c6.2 0 11.74 3.7 14.12 9.43a15.256 15.256 0 01-3.28 16.66l-59.52 59.79a20.005 20.005 0 01-14.28 5.94c-5.4 0-10.47-2.11-14.28-5.94L72.53 92.96a15.256 15.256 0 01-3.28-16.66c2.38-5.73 7.92-9.43 14.12-9.43h14.38v-43.4c-18.32 8.79-34.22 22.56-45.5 39.59-13.92 21-20.27 45.53-18.36 70.92a7.725 7.725 0 01-7.12 8.28 7.725 7.725 0 01-8.28-7.12c-2.17-28.84 5.06-56.71 20.89-80.6 15.17-22.92 37.71-40.65 63.47-49.93a7.724 7.724 0 0110.34 7.27v62.73c0 4.26-3.46 7.72-7.72 7.72H83.73L143 141.87c.89.89 2.08 1.39 3.34 1.39s2.45-.49 3.34-1.39l59.27-59.54H187.2c-4.26 0-7.72-3.46-7.72-7.72V11.87c0-2.51 1.23-4.87 3.28-6.32a7.724 7.724 0 017.06-.95c50.69 18.27 84.74 66.75 84.74 120.64 0 35.42-14.86 69.6-40.77 93.77-24.01 22.4-54.73 34.45-87.33 34.45z"/><path class="cls-1" d="M132.77 64.65c-4.26 0-7.72-3.46-7.72-7.72V7.72c0-4.26 3.46-7.72 7.72-7.72s7.72 3.46 7.72 7.72v49.21c0 4.26-3.46 7.72-7.72 7.72zm27.12-21.09c-4.26 0-7.72-3.46-7.72-7.72V7.72c0-4.26 3.46-7.72 7.72-7.72s7.72 3.46 7.72 7.72v28.12c0 4.26-3.46 7.72-7.72 7.72zM65.24 271.58C29.27 271.58 0 242.31 0 206.34s29.27-65.24 65.24-65.24 65.24 29.27 65.24 65.24-29.27 65.24-65.24 65.24zm0-116.47c-28.25 0-51.24 22.98-51.24 51.24s22.98 51.24 51.24 51.24 51.24-22.98 51.24-51.24-22.98-51.24-51.24-51.24z"/><path class="cls-1" d="M69.3 181.32c.75 0 1.32.17 1.72.4.34.34.63.8.75 1.43l6.54 38.98h1.09l6.48-39.27c.11-.63.29-1.03.57-1.26.23-.17.75-.29 1.6-.29h6.19c.69 0 1.2.17 1.43.46.17.34.23.86.11 1.55l-8.14 47.24c-.17.86-.46 1.43-.8 1.78-.4.23-1.09.4-2.06.4H73.72c-1.03 0-1.72-.17-2.06-.4-.4-.34-.69-.92-.8-1.78l-5.56-34.11-5.5 34.11c-.17.86-.46 1.43-.8 1.78-.4.23-1.09.4-2.06.4H45.88c-1.03 0-1.72-.17-2.06-.4-.4-.34-.69-.92-.8-1.78l-8.14-47.24c-.11-.69-.06-1.2.17-1.55.17-.29.63-.46 1.38-.46h6.19c.8 0 1.38.11 1.66.29.23.23.4.63.52 1.26l6.48 39.27h1.09l6.54-38.98c.11-.63.34-1.09.75-1.43.34-.23.92-.4 1.72-.4h7.97z"/><rect class="cls-1" x="27.98" y="193.27" width="71.5" height="8.83" rx="3.2" ry="3.2"/><rect class="cls-1" x="27.98" y="206.44" width="71.5" height="8.83" rx="3.2" ry="3.2"/></g></svg>