<svg id="_레이어_2" xmlns="http://www.w3.org/2000/svg" viewBox="0 0 284.05 294.61"><defs><style>.cls-1{fill:none;stroke:#9fa7fd;stroke-linecap:round;stroke-linejoin:round;stroke-width:12px}</style></defs><g id="_Õ__1"><ellipse class="cls-1" cx="138.57" cy="78.29" rx="72.29" ry="71.98" transform="rotate(-88.03 138.57 78.293)"/><path class="cls-1" d="M189.53 129.25l20.88 20.89m63.04 63.74c6.02-5.87 6.15-15.51.28-21.53l-41.36-42.45c-5.87-6.02-15.51-6.15-21.53-.28-6.02 5.87-6.15 15.51-.28 21.53l41.36 42.45c5.87 6.02 15.51 6.15 21.53.28z"/><circle class="cls-1" cx="138.57" cy="78.29" r="45.98" transform="rotate(-76.55 138.579 78.293)"/><path class="cls-1" d="M93.56 288.61H6v-78.17h87.56m0-29.65h87.56v107.82H93.56zm87.56 57.08h87.56v50.74h-87.56"/></g></svg>