<svg id="_레이어_2" xmlns="http://www.w3.org/2000/svg" viewBox="0 0 508.12 340.36"><defs><style>path{fill:#5b54c6}</style></defs><g id="Layer_1"><path d="M483.31 340.36H24.82C11.14 340.36 0 329.23 0 315.55v-10.41c0-2.78 1.08-5.4 3.05-7.37s4.58-3.05 7.36-3.05H497.7c5.74 0 10.42 4.67 10.42 10.41v10.41c0 13.68-11.13 24.81-24.81 24.81zM14 308.72v6.82c0 5.96 4.85 10.81 10.82 10.81h458.49c5.96 0 10.81-4.85 10.81-10.81v-6.82H14zM261.55 38.5h-14.97c-3.87 0-7-3.13-7-7s3.13-7 7-7h14.97c3.87 0 7 3.13 7 7s-3.13 7-7 7zM453.7 61.96H54.42c-3.87 0-7-3.13-7-7s3.13-7 7-7H453.7c3.87 0 7 3.13 7 7s-3.13 7-7 7z"/><path d="M498.62 308.9c-1.92 0-3.83-.78-5.21-2.33l-44.92-50.09a7.002 7.002 0 01-1.79-4.67V43.19C446.7 27.1 433.61 14 417.51 14H90.6c-16.09 0-29.19 13.09-29.19 29.19v208.62c0 1.73-.64 3.39-1.79 4.67L14.7 306.57a7.006 7.006 0 01-9.89.54c-2.88-2.58-3.12-7.01-.54-9.88l43.13-48.09V43.19C47.42 19.37 66.79 0 90.6 0h326.92c23.81 0 43.19 19.37 43.19 43.19v205.94l43.13 48.09a6.993 6.993 0 01-.54 9.88 6.98 6.98 0 01-4.67 1.79z"/><path d="M453.7 258.99H54.42c-3.87 0-7-3.13-7-7s3.13-7 7-7H453.7c3.87 0 7 3.13 7 7s-3.13 7-7 7zm-197.15 26.45h-9.98c-3.87 0-7-3.13-7-7s3.13-7 7-7h9.98c3.87 0 7 3.13 7 7s-3.13 7-7 7zm34.94 0h-9.98c-3.87 0-7-3.13-7-7s3.13-7 7-7h9.98c3.87 0 7 3.13 7 7s-3.13 7-7 7zm-104.81 0h-9.98c-3.87 0-7-3.13-7-7s3.13-7 7-7h9.98c3.87 0 7 3.13 7 7s-3.13 7-7 7zm34.94 0h-9.98c-3.87 0-7-3.13-7-7s3.13-7 7-7h9.98c3.87 0 7 3.13 7 7s-3.13 7-7 7zm-69.88 0h-9.98c-3.87 0-7-3.13-7-7s3.13-7 7-7h9.98c3.87 0 7 3.13 7 7s-3.13 7-7 7zm-69.87 0h-9.98c-3.87 0-7-3.13-7-7s3.13-7 7-7h9.98c3.87 0 7 3.13 7 7s-3.13 7-7 7zm34.93 0h-9.98c-3.87 0-7-3.13-7-7s3.13-7 7-7h9.98c3.87 0 7 3.13 7 7s-3.13 7-7 7zm284.5 0h-9.98c-3.87 0-7-3.13-7-7s3.13-7 7-7h9.98c3.87 0 7 3.13 7 7s-3.13 7-7 7zm34.93 0h-9.98c-3.87 0-7-3.13-7-7s3.13-7 7-7h9.98c3.87 0 7 3.13 7 7s-3.13 7-7 7zm-69.87 0h-9.98c-3.87 0-7-3.13-7-7s3.13-7 7-7h9.98c3.87 0 7 3.13 7 7s-3.13 7-7 7zm54.45-140.73c-1.79 0-3.58-.68-4.95-2.05l-50.55-50.55c-2.73-2.73-2.73-7.17 0-9.9s7.17-2.73 9.9 0l50.55 50.55a7.007 7.007 0 010 9.9 6.973 6.973 0 01-4.95 2.05zm-47.37-3.17c-1.79 0-3.58-.68-4.95-2.05l-47.38-47.38a7.007 7.007 0 010-9.9 7.007 7.007 0 019.9 0l47.38 47.38a7.007 7.007 0 010 9.9 6.973 6.973 0 01-4.95 2.05z"/><path d="M420.82 188.93c-1.79 0-3.58-.68-4.95-2.05l-3.84-3.84a7.007 7.007 0 010-9.9 7.007 7.007 0 019.9 0l3.84 3.84a7.007 7.007 0 010 9.9 6.973 6.973 0 01-4.95 2.05zm-23.05-23.05c-1.79 0-3.58-.68-4.95-2.05l-3.84-3.84a7.007 7.007 0 010-9.9 7.007 7.007 0 019.9 0l3.84 3.84a7.007 7.007 0 010 9.9 6.973 6.973 0 01-4.95 2.05zm-23.05-23.05c-1.79 0-3.58-.68-4.95-2.05l-1.28-1.28a7.007 7.007 0 010-9.9 7.007 7.007 0 019.9 0l1.28 1.28a7.007 7.007 0 010 9.9 6.973 6.973 0 01-4.95 2.05zm-170.85 86.79c-3.87 0-7-3.13-7-7v-65h-33.99v65c0 3.87-3.13 7-7 7s-7-3.13-7-7v-72c0-3.87 3.13-7 7-7h47.99c3.87 0 7 3.13 7 7v72c0 3.87-3.13 7-7 7z"/><path d="M251.86 229.62c-3.87 0-7-3.13-7-7V102.68h-33.99v119.94c0 3.87-3.13 7-7 7s-7-3.13-7-7V95.68c0-3.87 3.13-7 7-7h47.99c3.87 0 7 3.13 7 7v126.94c0 3.87-3.13 7-7 7z"/><path d="M299.85 229.62c-3.87 0-7-3.13-7-7v-88.37h-33.99v88.37c0 3.87-3.13 7-7 7s-7-3.13-7-7v-95.36c0-3.87 3.13-7 7-7h47.99c3.87 0 7 3.13 7 7v95.37c0 3.87-3.13 7-7 7zm-144.97 0c-3.87 0-7-3.13-7-7v-28.66h-33.99v28.66c0 3.87-3.13 7-7 7s-7-3.13-7-7v-35.66c0-3.87 3.13-7 7-7h47.99c3.87 0 7 3.13 7 7v35.66c0 3.87-3.13 7-7 7z"/></g></svg>